<svg version="1.1" id="Layer_1" xmlns="http://www.w3.org/2000/svg" xmlns:xlink="http://www.w3.org/1999/xlink" x="0px" y="0px"
	 width="100%" viewBox="0 0 2048 2048" enable-background="new 0 0 2048 2048" xml:space="preserve">
<path fill="#010102" opacity="1.000000" stroke="none" 
	d="
M1394.000000,2049.000000 
	C929.333313,2049.000000 465.166656,2049.000000 1.000000,2049.000000 
	C1.000000,1366.333374 1.000000,683.666687 1.000000,1.000000 
	C683.666687,1.000000 1366.333374,1.000000 2049.000000,1.000000 
	C2049.000000,683.666687 2049.000000,1366.333374 2049.000000,2049.000000 
	C1830.833374,2049.000000 1612.666626,2049.000000 1394.000000,2049.000000 
M378.421387,665.733215 
	C378.058319,668.791565 377.695282,671.849915 377.207947,675.796753 
	C377.254517,677.900757 377.301056,680.004700 377.211273,683.023804 
	C377.137238,686.521301 376.998505,690.018799 376.998352,693.516296 
	C376.987549,925.145081 376.985474,1156.773804 377.004303,1388.402588 
	C377.004700,1393.228516 377.258881,1398.054321 377.297058,1403.674683 
	C377.346558,1404.468628 377.396027,1405.262451 377.606079,1406.721802 
	C380.156464,1407.435791 382.708252,1408.778198 385.257019,1408.772461 
	C466.413483,1408.592529 547.569519,1408.138550 628.725952,1408.051758 
	C668.771362,1408.008911 708.596252,1406.533936 748.162781,1399.263184 
	C783.953674,1392.686401 818.262634,1381.758057 851.625122,1367.610229 
	C880.247131,1355.472778 907.027893,1339.900391 932.588074,1322.273804 
	C970.548645,1296.095581 1004.039001,1265.135620 1032.723145,1228.910522 
	C1063.269897,1190.333252 1087.918457,1148.341675 1105.028076,1102.294800 
	C1113.410034,1079.736938 1119.309937,1056.207153 1125.491821,1032.894287 
	C1132.911865,1004.912598 1135.872681,976.135498 1136.572388,947.323425 
	C1137.660645,902.522522 1133.029419,858.296875 1121.477173,814.742126 
	C1111.074707,775.522217 1096.542358,738.191406 1076.612549,702.869629 
	C1062.493042,677.845703 1046.711792,653.951477 1028.425903,631.822754 
	C1012.064331,612.022644 993.846130,593.982971 974.577637,576.937866 
	C948.368652,553.753113 920.005798,533.701721 889.375977,516.911560 
	C854.896484,498.011139 818.526611,484.007263 780.323120,474.322174 
	C742.150330,464.644775 703.626953,459.044617 664.237732,459.092590 
	C593.407898,459.178833 522.577820,459.070404 451.747803,459.045959 
	C429.582153,459.038300 407.416473,459.007324 385.250916,459.054565 
	C378.052551,459.069885 377.348328,459.869965 377.162750,467.169830 
	C377.120422,468.835571 377.127502,470.502777 377.125336,472.169312 
	C377.076538,510.000793 377.033051,547.832275 376.980255,585.663757 
	C376.964355,597.066650 376.952972,597.073059 388.621033,597.061890 
	C473.950531,596.980164 559.280823,597.081909 644.609192,596.725769 
	C681.982483,596.569824 718.592773,600.531189 754.708069,610.741028 
	C805.888062,625.209473 849.905762,651.724426 888.885132,687.253662 
	C905.560608,702.453186 920.200317,719.502441 933.408997,737.804382 
	C948.981995,759.382446 962.151062,782.382019 972.271118,806.919739 
	C983.038879,833.028015 989.550720,860.386414 993.629883,888.380615 
	C998.655029,922.866882 997.628967,957.182556 991.743652,991.380127 
	C985.414673,1028.155884 972.662964,1062.739624 954.706970,1095.411865 
	C939.436890,1123.196899 920.340332,1148.156250 897.874390,1170.448364 
	C877.796509,1190.370728 855.137390,1206.965820 830.748474,1221.343018 
	C780.938171,1250.706299 727.472046,1267.311401 669.483521,1268.257812 
	C637.995117,1268.771851 606.498108,1268.786865 575.004639,1268.953247 
	C558.005920,1269.043091 541.006226,1269.019775 524.007263,1268.958984 
	C518.185425,1268.938232 517.182373,1267.802490 517.174011,1262.326172 
	C517.145752,1243.836304 517.050903,1225.346436 517.051514,1206.856567 
	C517.057129,1029.031250 517.077271,851.205872 517.092651,673.380554 
	C517.093384,665.418640 516.648132,664.946960 508.535614,664.946411 
	C469.204254,664.943787 429.872894,664.957581 390.541534,664.984131 
	C388.712677,664.985352 386.883972,665.164551 384.191193,665.134033 
	C382.466583,665.213928 380.741943,665.293823 378.421387,665.733215 
M1164.829224,758.749268 
	C1185.567505,795.624756 1206.248413,832.532715 1227.059082,869.367310 
	C1250.488525,910.836609 1273.985107,952.268250 1297.572266,993.647949 
	C1302.377197,1002.077393 1307.605591,1010.099792 1306.013306,1020.632629 
	C1305.147949,1026.356689 1305.328003,1032.263916 1305.321411,1038.088989 
	C1305.251221,1100.912231 1305.141602,1163.735718 1305.246094,1226.558716 
	C1305.305664,1262.380127 1305.896362,1298.200684 1305.947388,1334.022095 
	C1305.979004,1356.177490 1305.403076,1378.333374 1305.189453,1400.489868 
	C1305.112915,1408.423462 1305.753052,1408.961792 1313.760742,1408.961914 
	C1354.754272,1408.963013 1395.747681,1408.954102 1436.741211,1408.939331 
	C1444.542847,1408.936523 1444.982300,1408.532715 1444.980103,1400.747925 
	C1444.939819,1261.269897 1444.930664,1121.791748 1444.661499,982.314209 
	C1444.651367,977.085632 1443.038086,971.350342 1440.549072,966.724365 
	C1429.581177,946.339539 1417.979980,926.296143 1406.678223,906.089966 
	C1387.412109,871.645081 1368.210693,837.164062 1348.960327,802.710449 
	C1324.347412,758.659058 1299.758057,714.594482 1275.073730,670.583130 
	C1255.276245,635.284973 1235.338745,600.065369 1215.488647,564.796692 
	C1197.025391,531.992310 1178.513794,499.214630 1160.234131,466.308197 
	C1157.281250,460.992310 1153.664917,458.946045 1147.510498,458.981415 
	C1108.018311,459.208679 1068.523804,459.061401 1029.030151,459.026917 
	C1020.698303,459.019653 1012.366089,458.902740 1004.034790,458.959656 
	C997.055176,459.007355 996.315857,460.423370 999.771729,466.640167 
	C1001.956726,470.570923 1004.112976,474.518036 1006.332397,478.429352 
	C1036.584473,531.742065 1066.902100,585.017639 1097.085083,638.369385 
	C1119.636963,678.232483 1142.017578,718.192444 1164.829224,758.749268 
M1666.252075,614.798340 
	C1667.267456,613.076904 1668.303955,611.367493 1669.295044,609.632080 
	C1696.138550,562.626465 1722.991821,515.626404 1749.772949,468.585297 
	C1751.112671,466.232178 1751.820190,463.519226 1752.821899,460.973724 
	C1750.026367,460.345245 1747.232300,459.178131 1744.434937,459.169739 
	C1707.777588,459.059509 1671.119629,459.112732 1634.461914,459.125458 
	C1623.131348,459.129395 1611.800781,459.148102 1600.470215,459.131622 
	C1597.127686,459.126740 1594.385254,459.836090 1592.532837,463.133423 
	C1583.560913,479.103241 1574.381836,494.956573 1565.379150,510.909210 
	C1551.464233,535.566101 1537.700806,560.308655 1523.750000,584.945190 
	C1503.727905,620.303345 1483.444336,655.514160 1463.557495,690.947937 
	C1447.663696,719.267029 1432.260742,747.861389 1416.463501,776.235291 
	C1414.258423,780.195984 1414.055298,783.548645 1416.280762,787.433594 
	C1440.452393,829.630676 1464.549194,871.870667 1488.707642,914.075378 
	C1491.594482,919.118469 1492.679565,919.052734 1495.560669,914.020142 
	C1509.461426,889.738342 1523.357422,865.453918 1537.248047,841.166382 
	C1558.580811,803.866943 1579.955322,766.591309 1601.223633,729.255066 
	C1622.822632,691.338196 1644.314087,653.360046 1666.252075,614.798340 
M443.493561,1663.497681 
	C443.527863,1668.658447 443.704895,1673.823486 443.553497,1678.978882 
	C443.420959,1683.491699 445.450256,1685.261719 449.845459,1685.220825 
	C461.164520,1685.115479 472.500824,1685.561035 483.801300,1685.091064 
	C497.350616,1684.527466 509.738159,1679.920776 519.654907,1670.613159 
	C533.548645,1657.572388 537.450867,1641.070435 532.425598,1623.038574 
	C527.104004,1603.943481 513.555054,1592.296997 494.387512,1589.109253 
	C480.549225,1586.807861 466.234680,1587.254150 452.122620,1586.757568 
	C443.537842,1586.455444 442.774963,1587.325073 442.833221,1596.109985 
	C442.979980,1618.239868 443.258148,1640.368774 443.493561,1663.497681 
M1454.803223,1587.361206 
	C1454.419678,1589.788086 1453.715454,1592.213501 1453.704590,1594.642090 
	C1453.630859,1611.127563 1453.857910,1627.615723 1453.657959,1644.098999 
	C1453.569214,1651.405518 1453.189209,1658.798340 1447.778442,1664.733521 
	C1440.487793,1672.730713 1426.837280,1676.435059 1416.569702,1671.980347 
	C1406.224487,1667.491821 1399.913330,1659.317627 1399.395630,1647.668213 
	C1399.033447,1639.523193 1399.222900,1631.352661 1399.205444,1623.193604 
	C1399.182861,1612.702637 1399.288574,1602.210693 1399.161743,1591.721313 
	C1399.099731,1586.591675 1397.074463,1584.891479 1392.011353,1585.084229 
	C1386.923706,1585.277710 1384.869263,1587.302368 1384.927246,1593.227783 
	C1385.101440,1611.038940 1385.166992,1628.864624 1386.021240,1646.648682 
	C1386.334229,1653.164185 1387.868042,1659.937134 1390.349365,1665.974609 
	C1398.659058,1686.193604 1428.017578,1691.133301 1444.803833,1683.442383 
	C1459.951050,1676.502075 1466.583984,1663.634766 1467.183228,1647.799072 
	C1467.881836,1629.338379 1467.542114,1610.836792 1467.551025,1592.352905 
	C1467.553589,1586.858398 1466.223999,1585.663452 1460.625244,1585.804688 
	C1458.852783,1585.849243 1457.095093,1586.480713 1454.803223,1587.361206 
M658.772217,1609.383545 
	C656.140503,1603.444336 653.186584,1597.622070 650.976929,1591.529907 
	C649.141174,1586.468384 646.008545,1585.265869 641.009033,1585.696777 
	C636.367737,1586.096680 634.455566,1588.798096 632.813660,1592.527344 
	C623.755737,1613.098999 614.587708,1633.622192 605.478699,1654.171509 
	C601.902100,1662.239990 598.230713,1670.273193 594.954651,1678.463257 
	C594.257935,1680.205322 594.279541,1683.513672 595.377502,1684.449829 
	C598.424072,1687.047119 605.542175,1684.979614 607.397888,1681.268677 
	C610.002747,1676.059570 612.420227,1670.747559 614.691162,1665.383667 
	C616.389587,1661.372192 619.139282,1659.397827 623.520325,1659.405518 
	C636.016479,1659.427490 648.513184,1659.390747 661.008850,1659.281006 
	C664.800781,1659.247681 667.410522,1660.844482 668.890625,1664.256714 
	C670.943115,1668.988525 672.897034,1673.762939 674.916077,1678.509399 
	C677.634888,1684.901245 678.942505,1685.695190 685.940979,1685.288330 
	C691.006287,1684.994019 691.611694,1684.194336 689.598633,1679.593750 
	C679.454468,1656.410034 669.239441,1633.257324 658.772217,1609.383545 
M800.292297,1624.372437 
	C795.307617,1636.369019 790.389282,1648.394165 785.250916,1660.324585 
	C784.638062,1661.747559 782.826538,1662.654419 781.570618,1663.800415 
	C780.614136,1662.541504 779.337769,1661.415405 778.751953,1660.002808 
	C774.033936,1648.626099 769.484924,1637.179443 764.807129,1625.785889 
	C760.001343,1614.080444 755.172241,1602.383789 750.221313,1590.739380 
	C748.316772,1586.259888 740.457764,1584.190796 736.729004,1587.217285 
	C736.001465,1587.807983 735.909790,1589.956665 736.346252,1591.062378 
	C737.687012,1594.458862 739.586548,1597.631592 740.985352,1601.008789 
	C751.816162,1627.156738 762.610107,1653.320312 773.332275,1679.512939 
	C774.916504,1683.382812 776.913818,1686.054199 781.663025,1685.907227 
	C786.294067,1685.763794 789.247681,1684.335327 791.134949,1679.621582 
	C798.065308,1662.311768 805.437012,1645.178833 812.633057,1627.975220 
	C817.709290,1615.839600 822.820984,1603.718018 827.759949,1591.526611 
	C828.260925,1590.290039 828.265259,1587.875122 827.500610,1587.269775 
	C823.896118,1584.416870 815.932983,1586.975342 814.062866,1591.398315 
	C809.524170,1602.132324 805.063049,1612.899292 800.292297,1624.372437 
M1284.014160,1685.247192 
	C1287.651611,1685.261230 1289.038452,1683.215942 1288.979248,1679.834229 
	C1288.865723,1673.341064 1288.839233,1666.845093 1288.628174,1660.355225 
	C1288.348022,1651.738281 1288.852661,1643.477173 1294.853149,1636.381592 
	C1297.949951,1632.719482 1300.290894,1628.410767 1302.908813,1624.352417 
	C1309.858765,1613.578613 1316.841064,1602.824707 1323.669434,1591.973999 
	C1326.433838,1587.581299 1325.587158,1586.375244 1320.566772,1585.429932 
	C1315.859985,1584.543701 1313.022339,1586.611084 1310.599609,1590.267212 
	C1302.874878,1601.923584 1295.022705,1613.495361 1287.261719,1625.128052 
	C1282.627930,1632.073486 1280.403809,1632.132446 1275.947144,1624.955811 
	C1269.007812,1613.781128 1262.082031,1602.592896 1255.444336,1591.238647 
	C1252.631348,1586.426880 1248.871460,1585.126831 1243.716309,1586.058105 
	C1238.814697,1586.943359 1238.192017,1587.740601 1240.887573,1592.181885 
	C1249.006104,1605.558716 1256.996826,1619.033936 1265.692993,1632.032349 
	C1271.897095,1641.306030 1276.406860,1650.617432 1274.916992,1662.188110 
	C1274.284302,1667.102173 1274.820801,1672.169189 1274.858032,1677.166504 
	C1274.914917,1684.788452 1275.379639,1685.228271 1284.014160,1685.247192 
M988.508118,1622.500000 
	C988.555237,1640.664795 988.576477,1658.829712 988.661743,1676.994385 
	C988.698181,1684.770020 989.419250,1685.453003 997.363831,1685.459473 
	C1008.695923,1685.468750 1020.049133,1685.843750 1031.355713,1685.291870 
	C1055.179810,1684.129272 1074.846069,1669.146240 1078.839600,1644.635742 
	C1083.655273,1615.079224 1062.634155,1587.608154 1033.833374,1586.655518 
	C1020.847229,1586.225952 1007.837036,1586.577881 994.841614,1586.351685 
	C989.982849,1586.267212 988.415466,1588.431885 988.493896,1593.003906 
	C988.656921,1602.500000 988.524170,1612.000977 988.508118,1622.500000 
M909.207886,1656.500000 
	C909.245728,1635.015259 909.315918,1613.530640 909.300293,1592.045898 
	C909.296021,1586.174683 908.377197,1585.388794 902.590210,1585.435547 
	C896.586792,1585.484131 895.771790,1586.219971 895.765747,1592.469482 
	C895.742798,1616.282593 895.772217,1640.095703 895.823547,1663.908813 
	C895.834656,1669.068481 896.013672,1674.228149 896.123169,1679.387573 
	C896.214844,1683.710693 898.269775,1685.494507 902.734009,1685.429932 
	C907.345276,1685.363159 909.000793,1683.130493 909.039673,1678.982300 
	C909.106750,1671.821777 909.150391,1664.660889 909.207886,1656.500000 
z"/>
<path fill="#1C2D45" opacity="1.000000" stroke="none" 
	d="
M377.394653,1402.880249 
	C377.258881,1398.054321 377.004700,1393.228516 377.004303,1388.402588 
	C376.985474,1156.773804 376.987549,925.145081 376.998352,693.516296 
	C376.998505,690.018799 377.137238,686.521301 377.483215,682.848083 
	C378.162079,684.428833 378.891022,686.179810 378.920807,687.942627 
	C379.058624,696.103333 378.913849,704.269043 379.072510,712.429016 
	C379.116669,714.701538 379.125641,717.543945 380.395264,719.126526 
	C386.414398,726.628967 384.693817,735.135132 382.118225,742.508545 
	C379.049316,751.294373 379.498230,759.932800 379.369629,768.717468 
	C379.206604,779.853027 379.292664,790.993286 379.362793,802.130981 
	C379.428833,812.619141 376.557983,823.456909 383.018372,833.228333 
	C383.616302,834.132751 383.701843,835.462158 383.778748,836.610657 
	C384.223358,843.252502 384.835815,849.897705 384.881592,856.545227 
	C384.902618,859.603027 384.001251,862.739929 383.107452,865.717712 
	C380.244415,875.255859 378.239075,885.090332 380.880157,894.736572 
	C384.200958,906.865173 382.787598,918.791260 381.654755,930.841675 
	C380.862885,939.264893 378.492828,947.826599 379.371124,956.054932 
	C380.810425,969.539917 381.478638,982.884216 380.235352,996.358398 
	C380.146088,997.325745 380.345490,998.367249 380.622040,999.312439 
	C381.665070,1002.877197 383.678253,1004.234741 387.360565,1002.425842 
	C392.377838,999.960999 394.635406,995.979736 394.991241,990.490234 
	C395.323242,985.368774 396.283264,980.288086 396.614349,975.166687 
	C396.917114,970.483582 398.701202,965.193604 394.174561,961.610352 
	C390.867035,958.992188 390.448212,955.768005 389.876648,952.037598 
	C389.274323,948.106323 388.096802,944.058899 386.219940,940.574219 
	C383.282532,935.120422 383.791931,931.090393 388.384491,926.911804 
	C390.051758,925.394653 391.425385,922.940125 391.792511,920.724365 
	C392.876007,914.184509 393.258057,907.530823 394.219238,900.966309 
	C394.455719,899.351074 395.563904,897.606567 396.772095,896.440247 
	C399.975769,893.347595 403.556763,890.645630 406.758118,887.550842 
	C407.708557,886.632019 408.625549,884.723694 408.317291,883.613098 
	C406.347687,876.517761 410.813568,872.773682 415.431946,869.024536 
	C419.999969,865.316284 421.383850,865.469971 425.209351,870.071411 
	C428.997742,874.628235 433.444489,876.055298 437.378143,873.012512 
	C441.773712,869.612488 445.527985,865.385559 449.577576,861.535461 
	C454.828979,856.542847 458.287018,849.413269 466.889862,848.461792 
	C469.202301,848.206055 471.250885,845.250244 473.349792,843.451294 
	C476.513275,840.739929 479.614410,837.955872 482.843262,835.113586 
	C486.341492,840.575317 486.382202,840.294983 492.362671,841.163879 
	C494.597748,841.488586 498.283020,843.289246 498.424561,844.705139 
	C499.337646,853.838989 508.079437,856.388306 512.548523,864.097168 
	C513.279663,861.434082 513.920288,860.233521 513.886414,859.052185 
	C513.448608,843.766052 512.954224,828.481201 512.382202,813.199402 
	C512.199707,808.323547 512.212463,803.138367 504.426971,803.065063 
	C510.529144,801.935364 511.105194,798.167236 511.020386,793.805725 
	C510.907043,787.977356 510.874023,782.141479 511.040466,776.315552 
	C511.187683,771.162415 511.813873,766.020996 511.896606,760.869080 
	C511.926117,759.032898 510.980865,757.181152 510.480560,755.336487 
	C508.838226,756.239136 507.168365,757.096497 505.568726,758.069275 
	C505.021454,758.402039 504.651123,759.025024 504.198120,759.513733 
	C501.621124,762.294006 499.113434,764.616577 495.752869,760.264893 
	C495.100830,759.420593 493.303009,759.067505 492.066925,759.131348 
	C483.372864,759.579712 478.471375,753.484070 472.829926,748.445068 
	C467.307220,743.512085 463.911194,735.404724 454.180695,736.526672 
	C450.717560,736.925964 449.429108,733.564880 449.051514,730.269348 
	C448.814087,728.197266 448.198944,726.168457 447.753265,724.120239 
	C447.145721,724.176086 446.538177,724.231995 445.930634,724.287903 
	C445.586334,726.296143 445.513763,728.403931 444.824493,730.285828 
	C444.071381,732.341919 442.896759,735.747009 441.647644,735.866577 
	C435.044739,736.498596 431.315277,741.462036 427.567719,745.438354 
	C422.748993,750.551208 415.509552,754.740540 416.779968,763.835144 
	C417.256775,767.248352 414.688812,768.869019 411.360138,768.906860 
	C407.196716,768.954224 403.032440,768.935303 398.868530,768.931763 
	C394.959076,768.928406 393.454834,766.875488 392.953217,763.064636 
	C392.404144,758.892761 391.012970,754.832153 389.998444,750.720703 
	C389.681244,749.435242 389.154297,748.145447 389.135803,746.851746 
	C389.042938,740.357117 389.004974,733.858826 389.140656,727.365845 
	C389.174103,725.763733 389.936310,724.178650 390.349945,722.582214 
	C391.249146,719.111511 392.628601,715.681152 392.935303,712.158020 
	C393.649841,703.950134 398.063843,699.530151 406.294586,698.966064 
	C410.554596,698.674011 414.766418,697.677979 419.412750,697.062866 
	C425.716064,698.253601 431.649963,697.898193 437.028625,702.350220 
	C442.270264,706.688843 447.754272,703.041504 447.960022,696.052734 
	C448.054993,692.826416 447.976196,689.594910 447.976196,686.365784 
	C448.663055,686.359985 449.349945,686.354248 450.036804,686.348450 
	C450.036804,689.380981 449.694275,692.466736 450.153900,695.427917 
	C450.475281,697.498596 451.583923,700.791992 452.887177,701.081665 
	C455.495972,701.661499 459.395691,701.537476 461.111847,699.935669 
	C464.395599,696.870667 467.843170,696.244019 471.936035,695.876709 
	C475.081146,695.594482 478.126251,694.198303 481.930359,693.089111 
	C481.363098,692.405823 481.795105,692.717590 481.937195,693.129456 
	C483.387268,697.332825 486.853027,697.015442 490.225616,696.839050 
	C493.535950,696.665894 494.506317,694.416504 495.195465,691.560608 
	C496.461426,686.314575 497.592987,685.896545 503.591644,687.719360 
	C508.781311,689.296387 511.219482,687.797546 511.968506,682.552917 
	C512.156799,681.234070 512.246277,679.899780 512.468750,678.587402 
	C513.950745,669.843933 513.033325,668.782898 504.110352,669.048584 
	C502.945923,669.083191 501.785034,669.224670 500.620819,669.282227 
	C488.986481,669.857483 477.356842,670.636963 465.715302,670.914307 
	C458.976166,671.074951 452.111938,669.301147 445.847168,673.431213 
	C444.852997,674.086548 443.255310,673.880249 441.929749,673.969788 
	C436.283295,674.351074 430.581024,674.348999 425.010498,675.208618 
	C422.537537,675.590210 420.328705,677.683594 417.575989,678.989258 
	C415.008759,678.801331 412.859222,678.679016 410.723907,678.432922 
	C408.155701,678.136963 404.011047,678.575745 403.304443,677.239441 
	C399.610016,670.252563 393.311768,668.196472 386.469177,666.613953 
	C385.922760,666.487671 385.523041,665.726868 385.055176,665.260864 
	C386.883972,665.164551 388.712677,664.985352 390.541534,664.984131 
	C429.872894,664.957581 469.204254,664.943787 508.535614,664.946411 
	C516.648132,664.946960 517.093384,665.418640 517.092651,673.380554 
	C517.077271,851.205872 517.057129,1029.031250 517.051514,1206.856567 
	C517.050903,1225.346436 517.145752,1243.836304 517.174011,1262.326172 
	C517.182373,1267.802490 518.185425,1268.938232 524.007263,1268.958984 
	C541.006226,1269.019775 558.005920,1269.043091 575.004639,1268.953247 
	C606.498108,1268.786865 637.995117,1268.771851 669.483521,1268.257812 
	C727.472046,1267.311401 780.938171,1250.706299 830.748474,1221.343018 
	C855.137390,1206.965820 877.796509,1190.370728 897.874390,1170.448364 
	C920.340332,1148.156250 939.436890,1123.196899 954.706970,1095.411865 
	C972.662964,1062.739624 985.414673,1028.155884 991.743652,991.380127 
	C997.628967,957.182556 998.655029,922.866882 993.629883,888.380615 
	C989.550720,860.386414 983.038879,833.028015 972.271118,806.919739 
	C962.151062,782.382019 948.981995,759.382446 933.408997,737.804382 
	C920.200317,719.502441 905.560608,702.453186 888.885132,687.253662 
	C849.905762,651.724426 805.888062,625.209473 754.708069,610.741028 
	C718.592773,600.531189 681.982483,596.569824 644.609192,596.725769 
	C559.280823,597.081909 473.950531,596.980164 388.621033,597.061890 
	C376.952972,597.073059 376.964355,597.066650 376.980255,585.663757 
	C377.033051,547.832275 377.076538,510.000793 377.125336,472.169312 
	C377.127502,470.502777 377.120422,468.835571 377.162750,467.169830 
	C377.348328,459.869965 378.052551,459.069885 385.250916,459.054565 
	C407.416473,459.007324 429.582153,459.038300 451.747803,459.045959 
	C522.577820,459.070404 593.407898,459.178833 664.237732,459.092590 
	C703.626953,459.044617 742.150330,464.644775 780.323120,474.322174 
	C818.526611,484.007263 854.896484,498.011139 889.375977,516.911560 
	C920.005798,533.701721 948.368652,553.753113 974.577637,576.937866 
	C993.846130,593.982971 1012.064331,612.022644 1028.425903,631.822754 
	C1046.711792,653.951477 1062.493042,677.845703 1076.612549,702.869629 
	C1096.542358,738.191406 1111.074707,775.522217 1121.477173,814.742126 
	C1133.029419,858.296875 1137.660645,902.522522 1136.572388,947.323425 
	C1135.872681,976.135498 1132.911865,1004.912598 1125.491821,1032.894287 
	C1119.309937,1056.207153 1113.410034,1079.736938 1105.028076,1102.294800 
	C1087.918457,1148.341675 1063.269897,1190.333252 1032.723145,1228.910522 
	C1004.039001,1265.135620 970.548645,1296.095581 932.588074,1322.273804 
	C907.027893,1339.900391 880.247131,1355.472778 851.625122,1367.610229 
	C818.262634,1381.758057 783.953674,1392.686401 748.162781,1399.263184 
	C708.596252,1406.533936 668.771362,1408.008911 628.725952,1408.051758 
	C547.569519,1408.138550 466.413483,1408.592529 385.257019,1408.772461 
	C382.708252,1408.778198 380.156464,1407.435791 377.857605,1406.463745 
	C378.765503,1406.316162 379.419495,1406.504639 380.078644,1406.524780 
	C386.060760,1406.708984 386.662445,1405.833740 385.822357,1400.041016 
	C385.559387,1398.227783 386.633575,1396.252686 386.884857,1394.324097 
	C387.147461,1392.308594 387.396240,1390.239746 387.224182,1388.230591 
	C386.899658,1384.440308 385.805634,1380.664185 385.903595,1376.904785 
	C385.991089,1373.546509 387.828278,1370.230347 387.896027,1366.875488 
	C388.151489,1354.225952 388.056854,1341.567993 387.978333,1328.913818 
	C387.936523,1322.174438 389.116302,1315.225830 384.724518,1309.128418 
	C384.033203,1308.168701 384.329224,1306.536499 384.031128,1305.246948 
	C383.388672,1302.467529 385.516449,1298.704468 381.223175,1297.200806 
	C380.484680,1300.072266 379.119812,1302.940430 379.104279,1305.815796 
	C378.944061,1335.453369 379.043732,1365.092163 378.929443,1394.730225 
	C378.918945,1397.448730 377.929535,1400.163696 377.394653,1402.880249 
M683.542114,1270.003418 
	C670.278809,1270.801025 657.015442,1271.598511 643.752258,1272.397949 
	C643.586365,1272.407837 643.422607,1272.452637 643.256775,1272.462769 
	C629.325439,1273.309692 615.400085,1274.278931 601.460632,1274.959229 
	C590.987427,1275.470337 580.497437,1275.743408 570.012207,1275.846313 
	C566.059570,1275.885254 562.092468,1274.787720 558.144409,1274.862427 
	C553.987976,1274.941162 549.843933,1275.783691 545.699524,1276.330933 
	C544.260742,1276.520996 542.834229,1276.809692 541.407043,1277.079834 
	C537.411560,1277.835693 533.095032,1277.893433 529.497192,1279.529053 
	C523.390320,1282.305176 520.765137,1281.933594 517.644470,1275.492310 
	C516.244751,1276.793701 514.548218,1277.721558 513.835999,1279.142822 
	C510.278992,1286.240845 514.611633,1294.875122 522.384705,1296.876343 
	C524.400391,1297.395142 526.431030,1298.278198 528.148071,1299.445435 
	C531.543701,1301.753662 534.380554,1305.351685 538.070801,1306.656250 
	C544.649963,1308.982056 551.489563,1311.557129 558.809082,1308.529419 
	C561.935913,1307.236084 565.406677,1306.213867 568.753235,1306.110962 
	C581.825134,1305.708618 594.909790,1305.723145 608.434387,1305.577881 
	C611.537170,1311.513794 611.541077,1311.467407 619.510193,1312.138916 
	C621.993164,1312.348022 624.455444,1312.843750 626.915588,1313.274536 
	C637.441345,1315.117432 639.651550,1313.897461 643.438904,1302.926636 
	C643.754761,1305.986206 643.506836,1307.901367 644.217468,1309.344727 
	C645.053162,1311.042358 647.034607,1313.773682 647.977417,1313.568359 
	C655.595215,1311.909302 663.114563,1309.762939 670.600952,1307.552246 
	C673.658813,1306.649048 676.498596,1304.431274 679.546753,1304.189819 
	C686.338623,1303.651855 693.199219,1303.970947 700.031799,1303.961670 
	C704.856079,1303.955200 708.741272,1302.496094 711.198730,1297.895020 
	C713.288879,1293.981567 716.973877,1293.159546 720.625671,1295.197876 
	C729.148560,1299.954834 738.179626,1297.546997 747.040283,1297.601929 
	C747.492310,1297.604736 747.948669,1296.916016 748.948608,1296.109131 
	C745.235107,1295.193726 742.165039,1294.437012 739.095032,1293.680298 
	C752.379150,1291.697632 765.269409,1290.083618 778.206604,1289.067017 
	C787.096436,1288.368164 797.222656,1281.044434 799.375732,1272.413940 
	C800.663208,1267.253052 803.643677,1264.489502 808.744446,1263.295044 
	C814.418335,1261.966309 816.107178,1258.472900 814.417358,1252.817749 
	C813.960144,1251.287598 813.237732,1249.586548 813.522278,1248.137695 
	C814.102417,1245.183350 812.804626,1243.709717 810.277100,1243.884155 
	C807.792114,1244.055298 804.554565,1244.318848 805.554932,1248.523682 
	C805.754272,1249.361816 805.462463,1250.316650 805.286011,1252.748901 
	C803.263977,1250.721558 801.878113,1249.743164 801.041809,1248.417969 
	C798.294739,1244.065063 795.643250,1243.194946 791.089539,1245.763428 
	C788.778992,1247.066772 786.827454,1249.056396 784.450256,1250.177246 
	C782.207642,1251.234497 779.567566,1252.225220 777.196533,1252.040039 
	C774.130981,1251.800537 772.268127,1252.507690 770.411560,1254.951904 
	C769.306274,1256.407104 767.061462,1257.951416 765.402832,1257.873779 
	C756.004822,1257.434326 747.633850,1261.117432 739.014282,1263.825562 
	C735.877747,1264.810913 732.873962,1266.623047 729.690735,1266.971680 
	C722.945923,1267.710327 716.116333,1267.633911 709.333740,1268.077881 
	C701.057495,1268.619385 692.793823,1269.352295 683.542114,1270.003418 
M428.012573,1129.461304 
	C428.804565,1132.303589 429.458862,1135.193237 430.418976,1137.977539 
	C432.114655,1142.894897 433.830505,1147.852661 431.062927,1152.830811 
	C428.043549,1158.261963 428.413422,1163.599609 430.643646,1169.091797 
	C431.449463,1171.076050 432.769073,1173.131226 432.729279,1175.131714 
	C432.543518,1184.473755 435.154114,1194.156738 429.739441,1202.962646 
	C429.249817,1203.758911 429.289276,1204.888550 429.115265,1205.869263 
	C427.886719,1212.792114 430.497925,1217.968750 435.790924,1222.464355 
	C439.651306,1225.743286 443.503204,1229.400146 441.607300,1235.706055 
	C441.258453,1236.866333 443.392609,1239.638916 444.979797,1240.374390 
	C455.055450,1245.042969 465.647278,1244.803589 476.279266,1242.729736 
	C477.620239,1242.468018 479.453491,1241.555298 479.909180,1240.464233 
	C482.244659,1234.872437 486.285583,1229.624756 484.903748,1223.061157 
	C483.550171,1216.631714 481.902740,1210.255737 480.107666,1203.934692 
	C479.753326,1202.687012 477.830231,1201.962646 477.161499,1200.712769 
	C474.251953,1195.274048 469.643463,1189.898193 469.138489,1184.190918 
	C467.998779,1171.310669 469.102509,1158.245239 468.928314,1145.260132 
	C468.847015,1139.199585 470.957855,1134.178833 474.566254,1129.655029 
	C479.694122,1123.226318 485.089600,1117.009644 490.148987,1110.529419 
	C491.057648,1109.365601 491.347351,1107.301758 491.132172,1105.764038 
	C490.679779,1102.531006 489.833344,1099.332031 488.886719,1096.198242 
	C488.398804,1094.583008 487.487457,1091.922363 486.531250,1091.813721 
	C480.644806,1091.145142 481.090332,1086.982422 480.994263,1082.950806 
	C480.783569,1074.113159 479.854156,1073.339722 471.172546,1071.776733 
	C469.291687,1071.438110 466.513214,1069.141479 466.329376,1067.502197 
	C465.453613,1059.693604 464.890259,1052.108643 457.588959,1046.961792 
	C453.977753,1044.416138 451.364838,1040.156982 447.514923,1038.311279 
	C440.237427,1034.822388 427.999359,1036.708984 429.102356,1049.036499 
	C429.728607,1056.036011 426.408356,1060.738892 421.802368,1065.116821 
	C415.370453,1071.230469 415.369781,1074.857788 421.752686,1081.310791 
	C427.804260,1087.428467 428.032227,1090.537476 422.179749,1097.087646 
	C419.055725,1100.584106 415.689545,1103.551025 422.247711,1106.795776 
	C422.757019,1107.047729 423.171509,1107.823730 423.315491,1108.430786 
	C424.907654,1115.143188 426.437531,1121.870605 428.012573,1129.461304 
M452.493652,928.211609 
	C451.493835,927.146545 450.489136,926.086060 449.495483,925.015320 
	C448.250885,923.674255 446.291290,920.989868 445.897522,921.203369 
	C443.873199,922.301147 441.406525,923.825928 440.670166,925.791870 
	C439.232422,929.630127 438.928528,933.880737 437.981171,937.919861 
	C437.466064,940.116150 437.099304,942.641663 435.761139,944.279846 
	C433.857178,946.610718 433.805603,948.300659 435.794617,950.307617 
	C440.247375,954.800598 441.400818,960.161865 440.732880,966.369751 
	C439.272583,979.942261 443.111084,992.954590 445.510345,1006.106079 
	C445.658417,1006.917786 446.013763,1007.691711 446.479889,1009.116760 
	C447.876007,1007.011536 448.374329,1006.527893 448.556152,1005.945435 
	C451.131470,997.694824 451.121185,997.691650 459.392487,996.937439 
	C464.943512,996.431274 468.296173,992.845581 469.008820,987.278503 
	C469.443665,983.881897 470.491943,980.563354 471.274323,977.211914 
	C471.834290,974.813171 472.805359,972.433777 472.900879,970.018311 
	C473.137634,964.030396 472.929138,958.026245 472.995483,952.029663 
	C473.033569,948.589111 472.065948,946.038269 468.699982,944.308716 
	C467.171661,943.523499 465.655212,941.452637 465.359467,939.751709 
	C464.142822,932.753357 459.867310,929.431152 452.493652,928.211609 
M504.007050,700.615356 
	C499.074585,704.318115 498.056305,709.905457 501.702576,716.355835 
	C502.658691,718.047302 505.346863,720.133179 506.762787,719.827637 
	C508.366394,719.481689 510.069885,716.827026 510.616150,714.866028 
	C512.322937,708.738708 509.402893,704.284790 504.007050,700.615356 
M514.237854,1256.562500 
	C511.857971,1255.735840 507.433411,1258.421265 506.022400,1261.750977 
	C504.821289,1264.585327 504.757141,1267.367432 507.855347,1269.125977 
	C510.632629,1270.702148 513.080750,1269.336182 513.459473,1266.073120 
	C513.803650,1263.107178 514.014893,1260.125854 514.237854,1256.562500 
M526.417725,1275.396606 
	C526.647217,1275.685425 526.876709,1275.974121 527.106201,1276.262939 
	C527.290466,1276.054932 527.474731,1275.847046 527.658997,1275.639038 
	C527.310547,1275.488037 526.962097,1275.337036 526.417725,1275.396606 
z"/>
<path fill="#1C2E46" opacity="1.000000" stroke="none" 
	d="
M1164.651855,758.429260 
	C1142.017578,718.192444 1119.636963,678.232483 1097.085083,638.369385 
	C1066.902100,585.017639 1036.584473,531.742065 1006.332397,478.429352 
	C1004.112976,474.518036 1001.956726,470.570923 999.771729,466.640167 
	C996.315857,460.423370 997.055176,459.007355 1004.034790,458.959656 
	C1012.366089,458.902740 1020.698303,459.019653 1029.030151,459.026917 
	C1068.523804,459.061401 1108.018311,459.208679 1147.510498,458.981415 
	C1153.664917,458.946045 1157.281250,460.992310 1160.234131,466.308197 
	C1178.513794,499.214630 1197.025391,531.992310 1215.488647,564.796692 
	C1235.338745,600.065369 1255.276245,635.284973 1275.073730,670.583130 
	C1299.758057,714.594482 1324.347412,758.659058 1348.960327,802.710449 
	C1368.210693,837.164062 1387.412109,871.645081 1406.678223,906.089966 
	C1417.979980,926.296143 1429.581177,946.339539 1440.549072,966.724365 
	C1443.038086,971.350342 1444.651367,977.085632 1444.661499,982.314209 
	C1444.930664,1121.791748 1444.939819,1261.269897 1444.980103,1400.747925 
	C1444.982300,1408.532715 1444.542847,1408.936523 1436.741211,1408.939331 
	C1395.747681,1408.954102 1354.754272,1408.963013 1313.760742,1408.961914 
	C1305.753052,1408.961792 1305.112915,1408.423462 1305.189453,1400.489868 
	C1305.403076,1378.333374 1305.979004,1356.177490 1305.947388,1334.022095 
	C1305.896362,1298.200684 1305.305664,1262.380127 1305.246094,1226.558716 
	C1305.141602,1163.735718 1305.251221,1100.912231 1305.321411,1038.088989 
	C1305.328003,1032.263916 1305.147949,1026.356689 1306.013306,1020.632629 
	C1307.605591,1010.099792 1302.377197,1002.077393 1297.572266,993.647949 
	C1273.985107,952.268250 1250.488525,910.836609 1227.059082,869.367310 
	C1206.248413,832.532715 1185.567505,795.624756 1164.651855,758.429260 
z"/>
<path fill="#1C2E46" opacity="1.000000" stroke="none" 
	d="
M1666.052368,615.103516 
	C1644.314087,653.360046 1622.822632,691.338196 1601.223633,729.255066 
	C1579.955322,766.591309 1558.580811,803.866943 1537.248047,841.166382 
	C1523.357422,865.453918 1509.461426,889.738342 1495.560669,914.020142 
	C1492.679565,919.052734 1491.594482,919.118469 1488.707642,914.075378 
	C1464.549194,871.870667 1440.452393,829.630676 1416.280762,787.433594 
	C1414.055298,783.548645 1414.258423,780.195984 1416.463501,776.235291 
	C1432.260742,747.861389 1447.663696,719.267029 1463.557495,690.947937 
	C1483.444336,655.514160 1503.727905,620.303345 1523.750000,584.945190 
	C1537.700806,560.308655 1551.464233,535.566101 1565.379150,510.909210 
	C1574.381836,494.956573 1583.560913,479.103241 1592.532837,463.133423 
	C1594.385254,459.836090 1597.127686,459.126740 1600.470215,459.131622 
	C1611.800781,459.148102 1623.131348,459.129395 1634.461914,459.125458 
	C1671.119629,459.112732 1707.777588,459.059509 1744.434937,459.169739 
	C1747.232300,459.178131 1750.026367,460.345245 1752.821899,460.973724 
	C1751.820190,463.519226 1751.112671,466.232178 1749.772949,468.585297 
	C1722.991821,515.626404 1696.138550,562.626465 1669.295044,609.632080 
	C1668.303955,611.367493 1667.267456,613.076904 1666.052368,615.103516 
z"/>
<path fill="#1E2F48" opacity="1.000000" stroke="none" 
	d="
M419.000000,697.000000 
	C414.766418,697.677979 410.554596,698.674011 406.294586,698.966064 
	C398.063843,699.530151 393.649841,703.950134 392.935303,712.158020 
	C392.628601,715.681152 391.249146,719.111511 390.349945,722.582214 
	C389.936310,724.178650 389.174103,725.763733 389.140656,727.365845 
	C389.004974,733.858826 389.042938,740.357117 389.135803,746.851746 
	C389.154297,748.145447 389.681244,749.435242 389.998444,750.720703 
	C391.012970,754.832153 392.404144,758.892761 392.953217,763.064636 
	C393.454834,766.875488 394.959076,768.928406 398.868530,768.931763 
	C403.032440,768.935303 407.196716,768.954224 411.360138,768.906860 
	C414.688812,768.869019 417.256775,767.248352 416.779968,763.835144 
	C415.509552,754.740540 422.748993,750.551208 427.567719,745.438354 
	C431.315277,741.462036 435.044739,736.498596 441.647644,735.866577 
	C442.896759,735.747009 444.071381,732.341919 444.824493,730.285828 
	C445.513763,728.403931 445.586334,726.296143 445.930634,724.287903 
	C446.538177,724.231995 447.145721,724.176086 447.753265,724.120239 
	C448.198944,726.168457 448.814087,728.197266 449.051514,730.269348 
	C449.429108,733.564880 450.717560,736.925964 454.180695,736.526672 
	C463.911194,735.404724 467.307220,743.512085 472.829926,748.445068 
	C478.471375,753.484070 483.372864,759.579712 492.066925,759.131348 
	C493.303009,759.067505 495.100830,759.420593 495.752869,760.264893 
	C499.113434,764.616577 501.621124,762.294006 504.198120,759.513733 
	C504.651123,759.025024 505.021454,758.402039 505.568726,758.069275 
	C507.168365,757.096497 508.838226,756.239136 510.480560,755.336487 
	C510.980865,757.181152 511.926117,759.032898 511.896606,760.869080 
	C511.813873,766.020996 511.187683,771.162415 511.040466,776.315552 
	C510.874023,782.141479 510.907043,787.977356 511.020386,793.805725 
	C511.105194,798.167236 510.529144,801.935364 504.426971,803.065063 
	C512.212463,803.138367 512.199707,808.323547 512.382202,813.199402 
	C512.954224,828.481201 513.448608,843.766052 513.886414,859.052185 
	C513.920288,860.233521 513.279663,861.434082 512.548523,864.097168 
	C508.079437,856.388306 499.337646,853.838989 498.424561,844.705139 
	C498.283020,843.289246 494.597748,841.488586 492.362671,841.163879 
	C486.382202,840.294983 486.341492,840.575317 482.843262,835.113586 
	C479.614410,837.955872 476.513275,840.739929 473.349792,843.451294 
	C471.250885,845.250244 469.202301,848.206055 466.889862,848.461792 
	C458.287018,849.413269 454.828979,856.542847 449.577576,861.535461 
	C445.527985,865.385559 441.773712,869.612488 437.378143,873.012512 
	C433.444489,876.055298 428.997742,874.628235 425.209351,870.071411 
	C421.383850,865.469971 419.999969,865.316284 415.431946,869.024536 
	C410.813568,872.773682 406.347687,876.517761 408.317291,883.613098 
	C408.625549,884.723694 407.708557,886.632019 406.758118,887.550842 
	C403.556763,890.645630 399.975769,893.347595 396.772095,896.440247 
	C395.563904,897.606567 394.455719,899.351074 394.219238,900.966309 
	C393.258057,907.530823 392.876007,914.184509 391.792511,920.724365 
	C391.425385,922.940125 390.051758,925.394653 388.384491,926.911804 
	C383.791931,931.090393 383.282532,935.120422 386.219940,940.574219 
	C388.096802,944.058899 389.274323,948.106323 389.876648,952.037598 
	C390.448212,955.768005 390.867035,958.992188 394.174561,961.610352 
	C398.701202,965.193604 396.917114,970.483582 396.614349,975.166687 
	C396.283264,980.288086 395.323242,985.368774 394.991241,990.490234 
	C394.635406,995.979736 392.377838,999.960999 387.360565,1002.425842 
	C383.678253,1004.234741 381.665070,1002.877197 380.622040,999.312439 
	C380.345490,998.367249 380.146088,997.325745 380.235352,996.358398 
	C381.478638,982.884216 380.810425,969.539917 379.371124,956.054932 
	C378.492828,947.826599 380.862885,939.264893 381.654755,930.841675 
	C382.787598,918.791260 384.200958,906.865173 380.880157,894.736572 
	C378.239075,885.090332 380.244415,875.255859 383.107452,865.717712 
	C384.001251,862.739929 384.902618,859.603027 384.881592,856.545227 
	C384.835815,849.897705 384.223358,843.252502 383.778748,836.610657 
	C383.701843,835.462158 383.616302,834.132751 383.018372,833.228333 
	C376.557983,823.456909 379.428833,812.619141 379.362793,802.130981 
	C379.292664,790.993286 379.206604,779.853027 379.369629,768.717468 
	C379.498230,759.932800 379.049316,751.294373 382.118225,742.508545 
	C384.693817,735.135132 386.414398,726.628967 380.395264,719.126526 
	C379.125641,717.543945 379.116669,714.701538 379.072510,712.429016 
	C378.913849,704.269043 379.058624,696.103333 378.920807,687.942627 
	C378.891022,686.179810 378.162079,684.428833 377.551392,682.390503 
	C377.301056,680.004700 377.254517,677.900757 377.471741,675.079224 
	C378.162781,671.365723 378.590057,668.369751 379.017334,665.373779 
	C380.741943,665.293823 382.466583,665.213928 384.623169,665.197449 
	C385.523041,665.726868 385.922760,666.487671 386.469177,666.613953 
	C393.311768,668.196472 399.610016,670.252563 403.304443,677.239441 
	C404.011047,678.575745 408.155701,678.136963 410.723907,678.432922 
	C412.859222,678.679016 415.008759,678.801331 417.666656,679.396484 
	C418.454193,685.542969 418.727112,691.271484 419.000000,697.000000 
z"/>
<path fill="#24344B" opacity="1.000000" stroke="none" 
	d="
M443.488586,1662.997925 
	C443.258148,1640.368774 442.979980,1618.239868 442.833221,1596.109985 
	C442.774963,1587.325073 443.537842,1586.455444 452.122620,1586.757568 
	C466.234680,1587.254150 480.549225,1586.807861 494.387512,1589.109253 
	C513.555054,1592.296997 527.104004,1603.943481 532.425598,1623.038574 
	C537.450867,1641.070435 533.548645,1657.572388 519.654907,1670.613159 
	C509.738159,1679.920776 497.350616,1684.527466 483.801300,1685.091064 
	C472.500824,1685.561035 461.164520,1685.115479 449.845459,1685.220825 
	C445.450256,1685.261719 443.420959,1683.491699 443.553497,1678.978882 
	C443.704895,1673.823486 443.527863,1668.658447 443.488586,1662.997925 
M456.945129,1615.510132 
	C456.876953,1632.489624 456.861938,1649.469604 456.705414,1666.448242 
	C456.663055,1671.043579 458.541016,1673.380981 463.225250,1673.053711 
	C472.989471,1672.371338 482.851685,1672.284668 492.489136,1670.775269 
	C508.428802,1668.278564 520.250183,1654.786987 521.155640,1639.346313 
	C522.149719,1622.396484 511.943726,1605.970703 496.116608,1602.337158 
	C485.240356,1599.840088 473.717957,1600.069580 462.467438,1599.341919 
	C458.890411,1599.110596 457.026978,1601.378540 457.022675,1605.028687 
	C457.018921,1608.191284 456.975433,1611.353760 456.945129,1615.510132 
z"/>
<path fill="#24344B" opacity="1.000000" stroke="none" 
	d="
M1455.066895,1587.102417 
	C1457.095093,1586.480713 1458.852783,1585.849243 1460.625244,1585.804688 
	C1466.223999,1585.663452 1467.553589,1586.858398 1467.551025,1592.352905 
	C1467.542114,1610.836792 1467.881836,1629.338379 1467.183228,1647.799072 
	C1466.583984,1663.634766 1459.951050,1676.502075 1444.803833,1683.442383 
	C1428.017578,1691.133301 1398.659058,1686.193604 1390.349365,1665.974609 
	C1387.868042,1659.937134 1386.334229,1653.164185 1386.021240,1646.648682 
	C1385.166992,1628.864624 1385.101440,1611.038940 1384.927246,1593.227783 
	C1384.869263,1587.302368 1386.923706,1585.277710 1392.011353,1585.084229 
	C1397.074463,1584.891479 1399.099731,1586.591675 1399.161743,1591.721313 
	C1399.288574,1602.210693 1399.182861,1612.702637 1399.205444,1623.193604 
	C1399.222900,1631.352661 1399.033447,1639.523193 1399.395630,1647.668213 
	C1399.913330,1659.317627 1406.224487,1667.491821 1416.569702,1671.980347 
	C1426.837280,1676.435059 1440.487793,1672.730713 1447.778442,1664.733521 
	C1453.189209,1658.798340 1453.569214,1651.405518 1453.657959,1644.098999 
	C1453.857910,1627.615723 1453.630859,1611.127563 1453.704590,1594.642090 
	C1453.715454,1592.213501 1454.419678,1589.788086 1455.066895,1587.102417 
z"/>
<path fill="#283851" opacity="1.000000" stroke="none" 
	d="
M658.910767,1609.738525 
	C669.239441,1633.257324 679.454468,1656.410034 689.598633,1679.593750 
	C691.611694,1684.194336 691.006287,1684.994019 685.940979,1685.288330 
	C678.942505,1685.695190 677.634888,1684.901245 674.916077,1678.509399 
	C672.897034,1673.762939 670.943115,1668.988525 668.890625,1664.256714 
	C667.410522,1660.844482 664.800781,1659.247681 661.008850,1659.281006 
	C648.513184,1659.390747 636.016479,1659.427490 623.520325,1659.405518 
	C619.139282,1659.397827 616.389587,1661.372192 614.691162,1665.383667 
	C612.420227,1670.747559 610.002747,1676.059570 607.397888,1681.268677 
	C605.542175,1684.979614 598.424072,1687.047119 595.377502,1684.449829 
	C594.279541,1683.513672 594.257935,1680.205322 594.954651,1678.463257 
	C598.230713,1670.273193 601.902100,1662.239990 605.478699,1654.171509 
	C614.587708,1633.622192 623.755737,1613.098999 632.813660,1592.527344 
	C634.455566,1588.798096 636.367737,1586.096680 641.009033,1585.696777 
	C646.008545,1585.265869 649.141174,1586.468384 650.976929,1591.529907 
	C653.186584,1597.622070 656.140503,1603.444336 658.910767,1609.738525 
M626.097351,1638.597900 
	C625.451050,1640.127930 624.816040,1641.662964 624.156250,1643.187256 
	C622.494324,1647.026611 624.193848,1648.485474 627.910950,1648.435425 
	C636.876831,1648.314697 645.844727,1648.245605 654.807068,1647.988647 
	C660.562317,1647.823608 661.457092,1646.481323 659.278564,1641.307129 
	C654.895508,1630.897095 650.427979,1620.520996 645.824158,1610.207397 
	C645.080811,1608.542236 643.454590,1607.271362 642.236450,1605.818359 
	C640.965332,1607.208740 639.233643,1608.391724 638.499390,1610.023682 
	C634.343323,1619.262451 630.426147,1628.608765 626.097351,1638.597900 
z"/>
<path fill="#283851" opacity="1.000000" stroke="none" 
	d="
M800.431519,1624.012695 
	C805.063049,1612.899292 809.524170,1602.132324 814.062866,1591.398315 
	C815.932983,1586.975342 823.896118,1584.416870 827.500610,1587.269775 
	C828.265259,1587.875122 828.260925,1590.290039 827.759949,1591.526611 
	C822.820984,1603.718018 817.709290,1615.839600 812.633057,1627.975220 
	C805.437012,1645.178833 798.065308,1662.311768 791.134949,1679.621582 
	C789.247681,1684.335327 786.294067,1685.763794 781.663025,1685.907227 
	C776.913818,1686.054199 774.916504,1683.382812 773.332275,1679.512939 
	C762.610107,1653.320312 751.816162,1627.156738 740.985352,1601.008789 
	C739.586548,1597.631592 737.687012,1594.458862 736.346252,1591.062378 
	C735.909790,1589.956665 736.001465,1587.807983 736.729004,1587.217285 
	C740.457764,1584.190796 748.316772,1586.259888 750.221313,1590.739380 
	C755.172241,1602.383789 760.001343,1614.080444 764.807129,1625.785889 
	C769.484924,1637.179443 774.033936,1648.626099 778.751953,1660.002808 
	C779.337769,1661.415405 780.614136,1662.541504 781.570679,1663.800415 
	C782.826538,1662.654419 784.638062,1661.747559 785.250916,1660.324585 
	C790.389282,1648.394165 795.307617,1636.369019 800.431519,1624.012695 
z"/>
<path fill="#283851" opacity="1.000000" stroke="none" 
	d="
M1283.611328,1685.263550 
	C1275.379639,1685.228271 1274.914917,1684.788452 1274.858032,1677.166504 
	C1274.820801,1672.169189 1274.284302,1667.102173 1274.916992,1662.188110 
	C1276.406860,1650.617432 1271.897095,1641.306030 1265.692993,1632.032349 
	C1256.996826,1619.033936 1249.006104,1605.558716 1240.887573,1592.181885 
	C1238.192017,1587.740601 1238.814697,1586.943359 1243.716309,1586.058105 
	C1248.871460,1585.126831 1252.631348,1586.426880 1255.444336,1591.238647 
	C1262.082031,1602.592896 1269.007812,1613.781128 1275.947144,1624.955811 
	C1280.403809,1632.132446 1282.627930,1632.073486 1287.261719,1625.128052 
	C1295.022705,1613.495361 1302.874878,1601.923584 1310.599609,1590.267212 
	C1313.022339,1586.611084 1315.859985,1584.543701 1320.566772,1585.429932 
	C1325.587158,1586.375244 1326.433838,1587.581299 1323.669434,1591.973999 
	C1316.841064,1602.824707 1309.858765,1613.578613 1302.908813,1624.352417 
	C1300.290894,1628.410767 1297.949951,1632.719482 1294.853149,1636.381592 
	C1288.852661,1643.477173 1288.348022,1651.738281 1288.628174,1660.355225 
	C1288.839233,1666.845093 1288.865723,1673.341064 1288.979248,1679.834229 
	C1289.038452,1683.215942 1287.651611,1685.261230 1283.611328,1685.263550 
z"/>
<path fill="#1C2D45" opacity="1.000000" stroke="none" 
	d="
M988.510559,1622.000000 
	C988.524170,1612.000977 988.656921,1602.500000 988.493896,1593.003906 
	C988.415466,1588.431885 989.982849,1586.267212 994.841614,1586.351685 
	C1007.837036,1586.577881 1020.847229,1586.225952 1033.833374,1586.655518 
	C1062.634155,1587.608154 1083.655273,1615.079224 1078.839600,1644.635742 
	C1074.846069,1669.146240 1055.179810,1684.129272 1031.355713,1685.291870 
	C1020.049133,1685.843750 1008.695923,1685.468750 997.363831,1685.459473 
	C989.419250,1685.453003 988.698181,1684.770020 988.661743,1676.994385 
	C988.576477,1658.829712 988.555237,1640.664795 988.510559,1622.000000 
M1002.808411,1634.500000 
	C1002.827026,1645.324219 1002.865845,1656.148315 1002.853210,1666.972534 
	C1002.848816,1670.715942 1004.244934,1673.176880 1008.348877,1673.043945 
	C1016.994324,1672.763916 1025.744507,1673.123535 1034.258179,1671.887207 
	C1054.493408,1668.948608 1065.643188,1655.146484 1065.101318,1634.900757 
	C1064.599365,1616.139893 1051.660767,1601.528442 1033.471436,1599.773071 
	C1025.870361,1599.039429 1018.175110,1599.071533 1010.525085,1599.121582 
	C1004.334961,1599.161987 1003.072876,1600.622559 1002.968628,1607.022705 
	C1002.824890,1615.847046 1002.855652,1624.674072 1002.808411,1634.500000 
M1036.157715,1590.067261 
	C1023.852539,1589.542725 1011.538269,1589.171387 999.245789,1588.434814 
	C992.229736,1588.014282 990.954834,1588.792969 990.944824,1595.958374 
	C990.913025,1618.787354 990.932678,1641.616577 991.055298,1664.445068 
	C991.078491,1668.762085 991.577271,1673.085815 992.046326,1677.385742 
	C992.181824,1678.628784 992.978455,1679.799683 993.471985,1681.003662 
	C993.950195,1681.029419 994.428406,1681.055054 994.906616,1681.080811 
	C996.657654,1677.832520 999.537109,1674.716309 999.935425,1671.309814 
	C1000.898621,1663.072388 1000.853943,1654.701294 1000.942810,1646.381104 
	C1001.090393,1632.551758 1000.955750,1618.719604 1001.078247,1604.889771 
	C1001.133850,1598.602417 1002.585449,1597.302856 1008.750244,1597.028198 
	C1014.070679,1596.791138 1019.390442,1596.221436 1024.706421,1596.268188 
	C1037.526978,1596.380737 1048.698730,1600.394897 1057.927124,1609.831665 
	C1068.030029,1620.162476 1071.017944,1644.787720 1061.776367,1657.430298 
	C1060.617065,1659.016235 1059.792236,1660.926880 1059.186768,1662.807495 
	C1058.819336,1663.948608 1058.706787,1666.048706 1059.302124,1666.428345 
	C1060.334839,1667.086670 1062.520752,1667.369019 1063.317139,1666.711792 
	C1066.414917,1664.154907 1069.989868,1661.632812 1071.879395,1658.254395 
	C1078.357544,1646.671509 1077.564697,1633.953613 1074.868164,1621.714111 
	C1071.057861,1604.419189 1056.486328,1592.888428 1036.157715,1590.067261 
M1054.461670,1670.580933 
	C1052.956787,1671.294922 1051.451782,1672.008911 1049.946899,1672.722900 
	C1051.088501,1673.563477 1052.230225,1674.404053 1053.371826,1675.244751 
	C1053.909912,1673.791016 1054.447876,1672.337402 1054.461670,1670.580933 
z"/>
<path fill="#24344B" opacity="1.000000" stroke="none" 
	d="
M909.205811,1657.000122 
	C909.150391,1664.660889 909.106750,1671.821777 909.039673,1678.982300 
	C909.000793,1683.130493 907.345276,1685.363159 902.734009,1685.429932 
	C898.269775,1685.494507 896.214844,1683.710693 896.123169,1679.387573 
	C896.013672,1674.228149 895.834656,1669.068481 895.823547,1663.908813 
	C895.772217,1640.095703 895.742798,1616.282593 895.765747,1592.469482 
	C895.771790,1586.219971 896.586792,1585.484131 902.590210,1585.435547 
	C908.377197,1585.388794 909.296021,1586.174683 909.300293,1592.045898 
	C909.315918,1613.530640 909.245728,1635.015259 909.205811,1657.000122 
z"/>
<path fill="#1E2F48" opacity="1.000000" stroke="none" 
	d="
M377.345886,1403.277466 
	C377.929535,1400.163696 378.918945,1397.448730 378.929443,1394.730225 
	C379.043732,1365.092163 378.944061,1335.453369 379.104279,1305.815796 
	C379.119812,1302.940430 380.484680,1300.072266 381.223175,1297.200806 
	C385.516449,1298.704468 383.388672,1302.467529 384.031128,1305.246948 
	C384.329224,1306.536499 384.033203,1308.168701 384.724518,1309.128418 
	C389.116302,1315.225830 387.936523,1322.174438 387.978333,1328.913818 
	C388.056854,1341.567993 388.151489,1354.225952 387.896027,1366.875488 
	C387.828278,1370.230347 385.991089,1373.546509 385.903595,1376.904785 
	C385.805634,1380.664185 386.899658,1384.440308 387.224182,1388.230591 
	C387.396240,1390.239746 387.147461,1392.308594 386.884857,1394.324097 
	C386.633575,1396.252686 385.559387,1398.227783 385.822357,1400.041016 
	C386.662445,1405.833740 386.060760,1406.708984 380.078644,1406.524780 
	C379.419495,1406.504639 378.765503,1406.316162 377.777344,1406.131104 
	C377.396027,1405.262451 377.346558,1404.468628 377.345886,1403.277466 
z"/>
<path fill="#1C2D45" opacity="1.000000" stroke="none" 
	d="
M378.719360,665.553467 
	C378.590057,668.369751 378.162781,671.365723 377.533875,674.635010 
	C377.695282,671.849915 378.058319,668.791565 378.719360,665.553467 
z"/>
<path fill="#1D2F49" opacity="1.000000" stroke="none" 
	d="
M684.033447,1270.002930 
	C692.793823,1269.352295 701.057495,1268.619385 709.333740,1268.077881 
	C716.116333,1267.633911 722.945923,1267.710327 729.690735,1266.971680 
	C732.873962,1266.623047 735.877747,1264.810913 739.014282,1263.825562 
	C747.633850,1261.117432 756.004822,1257.434326 765.402832,1257.873779 
	C767.061462,1257.951416 769.306274,1256.407104 770.411560,1254.951904 
	C772.268127,1252.507690 774.130981,1251.800537 777.196533,1252.040039 
	C779.567566,1252.225220 782.207642,1251.234497 784.450256,1250.177246 
	C786.827454,1249.056396 788.778992,1247.066772 791.089539,1245.763428 
	C795.643250,1243.194946 798.294739,1244.065063 801.041809,1248.417969 
	C801.878113,1249.743164 803.263977,1250.721558 805.286011,1252.748901 
	C805.462463,1250.316650 805.754272,1249.361816 805.554932,1248.523682 
	C804.554565,1244.318848 807.792114,1244.055298 810.277100,1243.884155 
	C812.804626,1243.709717 814.102417,1245.183350 813.522278,1248.137695 
	C813.237732,1249.586548 813.960144,1251.287598 814.417358,1252.817749 
	C816.107178,1258.472900 814.418335,1261.966309 808.744446,1263.295044 
	C803.643677,1264.489502 800.663208,1267.253052 799.375732,1272.413940 
	C797.222656,1281.044434 787.096436,1288.368164 778.206604,1289.067017 
	C765.269409,1290.083618 752.379150,1291.697632 739.095032,1293.680298 
	C742.165039,1294.437012 745.235107,1295.193726 748.948608,1296.109131 
	C747.948669,1296.916016 747.492310,1297.604736 747.040283,1297.601929 
	C738.179626,1297.546997 729.148560,1299.954834 720.625671,1295.197876 
	C716.973877,1293.159546 713.288879,1293.981567 711.198730,1297.895020 
	C708.741272,1302.496094 704.856079,1303.955200 700.031799,1303.961670 
	C693.199219,1303.970947 686.338623,1303.651855 679.546753,1304.189819 
	C676.498596,1304.431274 673.658813,1306.649048 670.600952,1307.552246 
	C663.114563,1309.762939 655.595215,1311.909302 647.977417,1313.568359 
	C647.034607,1313.773682 645.053162,1311.042358 644.217468,1309.344727 
	C643.506836,1307.901367 643.754761,1305.986206 643.438904,1302.926636 
	C639.651550,1313.897461 637.441345,1315.117432 626.915588,1313.274536 
	C624.455444,1312.843750 621.993164,1312.348022 619.510193,1312.138916 
	C611.541077,1311.467407 611.537170,1311.513794 608.434387,1305.577881 
	C594.909790,1305.723145 581.825134,1305.708618 568.753235,1306.110962 
	C565.406677,1306.213867 561.935913,1307.236084 558.809082,1308.529419 
	C551.489563,1311.557129 544.649963,1308.982056 538.070801,1306.656250 
	C534.380554,1305.351685 531.543701,1301.753662 528.148071,1299.445435 
	C526.431030,1298.278198 524.400391,1297.395142 522.384705,1296.876343 
	C514.611633,1294.875122 510.278992,1286.240845 513.835999,1279.142822 
	C514.548218,1277.721558 516.244751,1276.793701 517.644470,1275.492310 
	C520.765137,1281.933594 523.390320,1282.305176 529.497192,1279.529053 
	C533.095032,1277.893433 537.411560,1277.835693 541.407043,1277.079834 
	C542.834229,1276.809692 544.260742,1276.520996 545.699524,1276.330933 
	C549.843933,1275.783691 553.987976,1274.941162 558.144409,1274.862427 
	C562.092468,1274.787720 566.059570,1275.885254 570.012207,1275.846313 
	C580.497437,1275.743408 590.987427,1275.470337 601.460632,1274.959229 
	C615.400085,1274.278931 629.325439,1273.309692 643.256775,1272.462769 
	C643.422607,1272.452637 643.586365,1272.407837 643.752258,1272.397949 
	C657.015442,1271.598511 670.278809,1270.801025 684.033447,1270.002930 
M773.991516,1255.604736 
	C773.780212,1255.510742 773.568909,1255.416748 773.357666,1255.322754 
	C773.315369,1255.454834 773.273071,1255.586792 773.230774,1255.718872 
	C773.462769,1255.744873 773.694763,1255.770752 773.991516,1255.604736 
z"/>
<path fill="#1E2F48" opacity="1.000000" stroke="none" 
	d="
M427.998413,1129.027588 
	C426.437531,1121.870605 424.907654,1115.143188 423.315491,1108.430786 
	C423.171509,1107.823730 422.757019,1107.047729 422.247711,1106.795776 
	C415.689545,1103.551025 419.055725,1100.584106 422.179749,1097.087646 
	C428.032227,1090.537476 427.804260,1087.428467 421.752686,1081.310791 
	C415.369781,1074.857788 415.370453,1071.230469 421.802368,1065.116821 
	C426.408356,1060.738892 429.728607,1056.036011 429.102356,1049.036499 
	C427.999359,1036.708984 440.237427,1034.822388 447.514923,1038.311279 
	C451.364838,1040.156982 453.977753,1044.416138 457.588959,1046.961792 
	C464.890259,1052.108643 465.453613,1059.693604 466.329376,1067.502197 
	C466.513214,1069.141479 469.291687,1071.438110 471.172546,1071.776733 
	C479.854156,1073.339722 480.783569,1074.113159 480.994263,1082.950806 
	C481.090332,1086.982422 480.644806,1091.145142 486.531250,1091.813721 
	C487.487457,1091.922363 488.398804,1094.583008 488.886719,1096.198242 
	C489.833344,1099.332031 490.679779,1102.531006 491.132172,1105.764038 
	C491.347351,1107.301758 491.057648,1109.365601 490.148987,1110.529419 
	C485.089600,1117.009644 479.694122,1123.226318 474.566254,1129.655029 
	C470.957855,1134.178833 468.847015,1139.199585 468.928314,1145.260132 
	C469.102509,1158.245239 467.998779,1171.310669 469.138489,1184.190918 
	C469.643463,1189.898193 474.251953,1195.274048 477.161499,1200.712769 
	C477.830231,1201.962646 479.753326,1202.687012 480.107666,1203.934692 
	C481.902740,1210.255737 483.550171,1216.631714 484.903748,1223.061157 
	C486.285583,1229.624756 482.244659,1234.872437 479.909180,1240.464233 
	C479.453491,1241.555298 477.620239,1242.468018 476.279266,1242.729736 
	C465.647278,1244.803589 455.055450,1245.042969 444.979797,1240.374390 
	C443.392609,1239.638916 441.258453,1236.866333 441.607300,1235.706055 
	C443.503204,1229.400146 439.651306,1225.743286 435.790924,1222.464355 
	C430.497925,1217.968750 427.886719,1212.792114 429.115265,1205.869263 
	C429.289276,1204.888550 429.249817,1203.758911 429.739441,1202.962646 
	C435.154114,1194.156738 432.543518,1184.473755 432.729279,1175.131714 
	C432.769073,1173.131226 431.449463,1171.076050 430.643646,1169.091797 
	C428.413422,1163.599609 428.043549,1158.261963 431.062927,1152.830811 
	C433.830505,1147.852661 432.114655,1142.894897 430.418976,1137.977539 
	C429.458862,1135.193237 428.804565,1132.303589 427.998413,1129.027588 
z"/>
<path fill="#1D2F49" opacity="1.000000" stroke="none" 
	d="
M419.412750,697.062866 
	C418.727112,691.271484 418.454193,685.542969 418.090637,679.407227 
	C420.328705,677.683594 422.537537,675.590210 425.010498,675.208618 
	C430.581024,674.348999 436.283295,674.351074 441.929749,673.969788 
	C443.255310,673.880249 444.852997,674.086548 445.847168,673.431213 
	C452.111938,669.301147 458.976166,671.074951 465.715302,670.914307 
	C477.356842,670.636963 488.986481,669.857483 500.620819,669.282227 
	C501.785034,669.224670 502.945923,669.083191 504.110352,669.048584 
	C513.033325,668.782898 513.950745,669.843933 512.468750,678.587402 
	C512.246277,679.899780 512.156799,681.234070 511.968506,682.552917 
	C511.219482,687.797546 508.781311,689.296387 503.591644,687.719360 
	C497.592987,685.896545 496.461426,686.314575 495.195465,691.560608 
	C494.506317,694.416504 493.535950,696.665894 490.225616,696.839050 
	C486.853027,697.015442 483.387268,697.332825 481.937195,693.129456 
	C481.795105,692.717590 481.363098,692.405823 481.930359,693.089111 
	C478.126251,694.198303 475.081146,695.594482 471.936035,695.876709 
	C467.843170,696.244019 464.395599,696.870667 461.111847,699.935669 
	C459.395691,701.537476 455.495972,701.661499 452.887177,701.081665 
	C451.583923,700.791992 450.475281,697.498596 450.153900,695.427917 
	C449.694275,692.466736 450.036804,689.380981 450.036804,686.348450 
	C449.349945,686.354248 448.663055,686.359985 447.976196,686.365784 
	C447.976196,689.594910 448.054993,692.826416 447.960022,696.052734 
	C447.754272,703.041504 442.270264,706.688843 437.028625,702.350220 
	C431.649963,697.898193 425.716064,698.253601 419.412750,697.062866 
z"/>
<path fill="#1E2F48" opacity="1.000000" stroke="none" 
	d="
M452.854675,928.348022 
	C459.867310,929.431152 464.142822,932.753357 465.359467,939.751709 
	C465.655212,941.452637 467.171661,943.523499 468.699982,944.308716 
	C472.065948,946.038269 473.033569,948.589111 472.995483,952.029663 
	C472.929138,958.026245 473.137634,964.030396 472.900879,970.018311 
	C472.805359,972.433777 471.834290,974.813171 471.274323,977.211914 
	C470.491943,980.563354 469.443665,983.881897 469.008820,987.278503 
	C468.296173,992.845581 464.943512,996.431274 459.392487,996.937439 
	C451.121185,997.691650 451.131470,997.694824 448.556152,1005.945435 
	C448.374329,1006.527893 447.876007,1007.011536 446.479889,1009.116760 
	C446.013763,1007.691711 445.658417,1006.917786 445.510345,1006.106079 
	C443.111084,992.954590 439.272583,979.942261 440.732880,966.369751 
	C441.400818,960.161865 440.247375,954.800598 435.794617,950.307617 
	C433.805603,948.300659 433.857178,946.610718 435.761139,944.279846 
	C437.099304,942.641663 437.466064,940.116150 437.981171,937.919861 
	C438.928528,933.880737 439.232422,929.630127 440.670166,925.791870 
	C441.406525,923.825928 443.873199,922.301147 445.897522,921.203369 
	C446.291290,920.989868 448.250885,923.674255 449.495483,925.015320 
	C450.489136,926.086060 451.493835,927.146545 452.854675,928.348022 
z"/>
<path fill="#1D2F49" opacity="1.000000" stroke="none" 
	d="
M504.255524,700.735596 
	C509.402893,704.284790 512.322937,708.738708 510.616150,714.866028 
	C510.069885,716.827026 508.366394,719.481689 506.762787,719.827637 
	C505.346863,720.133179 502.658691,718.047302 501.702576,716.355835 
	C498.056305,709.905457 499.074585,704.318115 504.255524,700.735596 
z"/>
<path fill="#1E2F48" opacity="1.000000" stroke="none" 
	d="
M514.261230,1256.856934 
	C514.014893,1260.125854 513.803650,1263.107178 513.459473,1266.073120 
	C513.080750,1269.336182 510.632629,1270.702148 507.855347,1269.125977 
	C504.757141,1267.367432 504.821289,1264.585327 506.022400,1261.750977 
	C507.433411,1258.421265 511.857971,1255.735840 514.261230,1256.856934 
z"/>
<path fill="#1D2F49" opacity="1.000000" stroke="none" 
	d="
M526.515686,1275.291260 
	C526.962097,1275.337036 527.310547,1275.488037 527.658997,1275.639038 
	C527.474731,1275.847046 527.290466,1276.054932 527.106201,1276.262939 
	C526.876709,1275.974121 526.647217,1275.685425 526.515686,1275.291260 
z"/>
<path fill="#010205" opacity="1.000000" stroke="none" 
	d="
M456.947327,1615.013184 
	C456.975433,1611.353760 457.018921,1608.191284 457.022675,1605.028687 
	C457.026978,1601.378540 458.890411,1599.110596 462.467438,1599.341919 
	C473.717957,1600.069580 485.240356,1599.840088 496.116608,1602.337158 
	C511.943726,1605.970703 522.149719,1622.396484 521.155640,1639.346313 
	C520.250183,1654.786987 508.428802,1668.278564 492.489136,1670.775269 
	C482.851685,1672.284668 472.989471,1672.371338 463.225250,1673.053711 
	C458.541016,1673.380981 456.663055,1671.043579 456.705414,1666.448242 
	C456.861938,1649.469604 456.876953,1632.489624 456.947327,1615.013184 
z"/>
<path fill="#010205" opacity="1.000000" stroke="none" 
	d="
M626.262512,1638.258179 
	C630.426147,1628.608765 634.343323,1619.262451 638.499390,1610.023682 
	C639.233643,1608.391724 640.965332,1607.208740 642.236450,1605.818359 
	C643.454590,1607.271362 645.080811,1608.542236 645.824158,1610.207397 
	C650.427979,1620.520996 654.895508,1630.897095 659.278564,1641.307129 
	C661.457092,1646.481323 660.562317,1647.823608 654.807068,1647.988647 
	C645.844727,1648.245605 636.876831,1648.314697 627.910950,1648.435425 
	C624.193848,1648.485474 622.494324,1647.026611 624.156250,1643.187256 
	C624.816040,1641.662964 625.451050,1640.127930 626.262512,1638.258179 
z"/>
<path fill="#010205" opacity="1.000000" stroke="none" 
	d="
M1002.810059,1634.000000 
	C1002.855652,1624.674072 1002.824890,1615.847046 1002.968628,1607.022705 
	C1003.072876,1600.622559 1004.334961,1599.161987 1010.525085,1599.121582 
	C1018.175110,1599.071533 1025.870361,1599.039429 1033.471436,1599.773071 
	C1051.660767,1601.528442 1064.599365,1616.139893 1065.101318,1634.900757 
	C1065.643188,1655.146484 1054.493408,1668.948608 1034.258179,1671.887207 
	C1025.744507,1673.123535 1016.994324,1672.763916 1008.348877,1673.043945 
	C1004.244934,1673.176880 1002.848816,1670.715942 1002.853210,1666.972534 
	C1002.865845,1656.148315 1002.827026,1645.324219 1002.810059,1634.000000 
z"/>
<path fill="#283851" opacity="1.000000" stroke="none" 
	d="
M1036.614624,1590.100830 
	C1056.486328,1592.888428 1071.057861,1604.419189 1074.868164,1621.714111 
	C1077.564697,1633.953613 1078.357544,1646.671509 1071.879395,1658.254395 
	C1069.989868,1661.632812 1066.414917,1664.154907 1063.317139,1666.711792 
	C1062.520752,1667.369019 1060.334839,1667.086670 1059.302124,1666.428345 
	C1058.706787,1666.048706 1058.819336,1663.948608 1059.186768,1662.807495 
	C1059.792236,1660.926880 1060.617065,1659.016235 1061.776367,1657.430298 
	C1071.017944,1644.787720 1068.030029,1620.162476 1057.927124,1609.831665 
	C1048.698730,1600.394897 1037.526978,1596.380737 1024.706421,1596.268188 
	C1019.390442,1596.221436 1014.070679,1596.791138 1008.750244,1597.028198 
	C1002.585449,1597.302856 1001.133850,1598.602417 1001.078247,1604.889771 
	C1000.955750,1618.719604 1001.090393,1632.551758 1000.942810,1646.381104 
	C1000.853943,1654.701294 1000.898621,1663.072388 999.935425,1671.309814 
	C999.537109,1674.716309 996.657654,1677.832520 994.906616,1681.080811 
	C994.428406,1681.055054 993.950195,1681.029419 993.471985,1681.003662 
	C992.978455,1679.799683 992.181824,1678.628784 992.046326,1677.385742 
	C991.577271,1673.085815 991.078491,1668.762085 991.055298,1664.445068 
	C990.932678,1641.616577 990.913025,1618.787354 990.944824,1595.958374 
	C990.954834,1588.792969 992.229736,1588.014282 999.245789,1588.434814 
	C1011.538269,1589.171387 1023.852539,1589.542725 1036.614624,1590.100830 
z"/>
<path fill="#283851" opacity="1.000000" stroke="none" 
	d="
M1054.723755,1670.732300 
	C1054.447876,1672.337402 1053.909912,1673.791016 1053.371826,1675.244751 
	C1052.230225,1674.404053 1051.088501,1673.563477 1049.946899,1672.722900 
	C1051.451782,1672.008911 1052.956787,1671.294922 1054.723755,1670.732300 
z"/>
<path fill="#1C2D45" opacity="1.000000" stroke="none" 
	d="
M773.959106,1255.700684 
	C773.694763,1255.770752 773.462769,1255.744873 773.230835,1255.718872 
	C773.273071,1255.586792 773.315369,1255.454834 773.357666,1255.322754 
	C773.568909,1255.416748 773.780212,1255.510742 773.959106,1255.700684 
z"/>
</svg>